<svg width="62" height="74" viewBox="0 0 62 74" fill="none" xmlns="http://www.w3.org/2000/svg">
<path d="M55.4801 71.2202C55.4801 71.2202 59.6301 64.3102 49.9201 59.3602C49.9201 59.3602 51.8001 66.7502 47.4001 73.6002H42.8801C42.8801 73.6002 42.6801 72.1602 44.5901 71.4302C48.5901 69.8902 48.7501 63.3202 47.5801 62.5302C44.0101 60.1301 42.6001 58.0802 43.5201 52.8602C43.5201 52.8602 37.3401 55.1202 29.6601 54.1502C29.2601 54.1002 28.8701 54.2902 28.6701 54.6402C28.2601 55.3502 27.4301 56.6302 26.0601 58.1102C26.0601 58.1102 25.7101 62.2002 24.7901 65.1102C24.7901 65.1102 25.1401 70.0901 23.8801 73.5901H18.4801C18.4801 73.5901 18.5401 71.4202 21.1401 71.1402C24.3201 70.8002 20.5701 60.9102 20.5701 60.9102C20.5701 60.9102 20.4101 66.3002 17.1701 73.5702H13.0401C13.0401 73.5702 13.0401 71.4701 15.1401 70.9501C18.5501 70.1002 17.0301 63.9602 16.4801 60.5502C15.9301 57.1302 15.1601 50.7402 12.3701 47.1902C9.5801 43.6402 8.16009 43.6702 7.99009 37.1502C7.99009 37.1502 5.62009 33.4102 6.47009 28.4802C6.47009 28.4802 4.70009 22.5602 7.36009 13.8102C7.36009 13.8102 1.07009 12.5302 0.950095 10.9702C0.820095 9.41015 1.29009 7.64015 2.97009 7.49015C4.65009 7.34015 7.11009 7.09015 7.12009 5.32015C7.12009 3.55015 4.98009 1.20015 6.31009 0.510153C7.55009 -0.139847 8.9901 4.05015 9.94009 3.39015C10.5601 2.96015 8.25009 0.700153 9.76009 1.01015C10.3801 1.14015 15.6401 2.88015 17.4201 12.0602C19.2001 21.2402 18.4601 27.3702 21.0301 27.3702C23.6001 27.3702 35.3501 26.9402 42.2101 28.6202C49.0701 30.3002 49.3501 32.9301 52.3601 32.1702C55.3701 31.4102 58.8301 29.5902 60.7901 36.2602C62.5201 42.1301 57.6601 41.3902 57.6601 43.2302C57.6601 45.0702 57.0101 47.9202 57.7501 49.6602C58.4901 51.4002 58.0801 55.6002 58.7301 57.9802C59.3801 60.3602 60.1601 62.5201 58.6901 65.5901C58.6901 65.5901 59.4101 70.7602 57.7901 73.6002H53.8901C53.8901 73.6002 53.6101 71.9802 55.5101 71.2202H55.4801Z" fill="url(#paint0_linear_99_21)"/>
<defs>
<linearGradient id="paint0_linear_99_21" x1="-1.88991" y1="2.46015" x2="54.8501" y2="78.2602" gradientUnits="userSpaceOnUse">
<stop stop-color="#37D7FA"/>
<stop offset="0.4" stop-color="#4B72FE"/>
<stop offset="0.68" stop-color="#FF8DF2"/>
<stop offset="1" stop-color="#FF8705"/>
</linearGradient>
</defs>
</svg>
